<mxfile host="app.diagrams.net" agent="Mozilla/5.0 (Windows NT 10.0; Win64; x64) AppleWebKit/537.36 (KHTML, like Gecko) Chrome/128.0.0.0 Safari/537.36 OPR/114.0.0.0" version="24.8.2">
  <diagram name="PÃ¡gina-1" id="t3tmQ_pUmTbTAGNb9ZGU">
    <mxGraphModel dx="1393" dy="802" grid="1" gridSize="10" guides="1" tooltips="1" connect="1" arrows="1" fold="1" page="1" pageScale="1" pageWidth="827" pageHeight="1169" math="0" shadow="0">
      <root>
        <mxCell id="0" />
        <mxCell id="1" parent="0" />
        <mxCell id="MH7_JUJhLbjzGsGCFa3Y-60" value="" style="rounded=0;whiteSpace=wrap;html=1;direction=south;" vertex="1" parent="1">
          <mxGeometry x="130" y="140" width="517" height="610" as="geometry" />
        </mxCell>
        <mxCell id="MH7_JUJhLbjzGsGCFa3Y-10" style="rounded=0;orthogonalLoop=1;jettySize=auto;html=1;entryX=1;entryY=0;entryDx=0;entryDy=0;endArrow=none;endFill=0;" edge="1" parent="1" source="MH7_JUJhLbjzGsGCFa3Y-1" target="MH7_JUJhLbjzGsGCFa3Y-3">
          <mxGeometry relative="1" as="geometry">
            <mxPoint x="155" y="390" as="sourcePoint" />
          </mxGeometry>
        </mxCell>
        <mxCell id="MH7_JUJhLbjzGsGCFa3Y-11" style="rounded=0;orthogonalLoop=1;jettySize=auto;html=1;endArrow=none;endFill=0;exitX=1;exitY=0.3333333333333333;exitDx=0;exitDy=0;exitPerimeter=0;" edge="1" parent="1" source="MH7_JUJhLbjzGsGCFa3Y-1" target="MH7_JUJhLbjzGsGCFa3Y-4">
          <mxGeometry relative="1" as="geometry">
            <mxPoint x="100" y="400" as="sourcePoint" />
          </mxGeometry>
        </mxCell>
        <mxCell id="MH7_JUJhLbjzGsGCFa3Y-12" style="rounded=0;orthogonalLoop=1;jettySize=auto;html=1;entryX=0.917;entryY=0.6;entryDx=0;entryDy=0;endArrow=none;endFill=0;entryPerimeter=0;" edge="1" parent="1" source="MH7_JUJhLbjzGsGCFa3Y-1" target="MH7_JUJhLbjzGsGCFa3Y-6">
          <mxGeometry relative="1" as="geometry">
            <mxPoint x="140" y="400" as="sourcePoint" />
          </mxGeometry>
        </mxCell>
        <mxCell id="MH7_JUJhLbjzGsGCFa3Y-13" style="rounded=0;orthogonalLoop=1;jettySize=auto;html=1;endArrow=none;endFill=0;" edge="1" parent="1" source="MH7_JUJhLbjzGsGCFa3Y-1" target="MH7_JUJhLbjzGsGCFa3Y-7">
          <mxGeometry relative="1" as="geometry">
            <mxPoint x="90" y="410" as="sourcePoint" />
          </mxGeometry>
        </mxCell>
        <mxCell id="MH7_JUJhLbjzGsGCFa3Y-1" value="Usuario" style="shape=umlActor;verticalLabelPosition=bottom;verticalAlign=top;html=1;outlineConnect=0;" vertex="1" parent="1">
          <mxGeometry x="40" y="365" width="30" height="60" as="geometry" />
        </mxCell>
        <mxCell id="MH7_JUJhLbjzGsGCFa3Y-3" value="Cadastrar Usuario" style="ellipse;whiteSpace=wrap;html=1;direction=west;" vertex="1" parent="1">
          <mxGeometry x="195" y="200" width="120" height="50" as="geometry" />
        </mxCell>
        <mxCell id="MH7_JUJhLbjzGsGCFa3Y-17" style="rounded=0;orthogonalLoop=1;jettySize=auto;html=1;entryX=1;entryY=0;entryDx=0;entryDy=0;dashed=1;" edge="1" parent="1" source="MH7_JUJhLbjzGsGCFa3Y-4" target="MH7_JUJhLbjzGsGCFa3Y-5">
          <mxGeometry relative="1" as="geometry" />
        </mxCell>
        <mxCell id="MH7_JUJhLbjzGsGCFa3Y-18" value="&amp;lt;&amp;lt;include&amp;gt;&amp;gt;" style="edgeLabel;html=1;align=center;verticalAlign=middle;resizable=0;points=[];" vertex="1" connectable="0" parent="MH7_JUJhLbjzGsGCFa3Y-17">
          <mxGeometry x="0.0764" y="-3" relative="1" as="geometry">
            <mxPoint x="-1" as="offset" />
          </mxGeometry>
        </mxCell>
        <mxCell id="MH7_JUJhLbjzGsGCFa3Y-4" value="Realizar Login" style="ellipse;whiteSpace=wrap;html=1;direction=west;" vertex="1" parent="1">
          <mxGeometry x="285" y="270" width="120" height="50" as="geometry" />
        </mxCell>
        <mxCell id="MH7_JUJhLbjzGsGCFa3Y-5" value="Validar Dados" style="ellipse;whiteSpace=wrap;html=1;direction=west;" vertex="1" parent="1">
          <mxGeometry x="510" y="210" width="120" height="50" as="geometry" />
        </mxCell>
        <mxCell id="MH7_JUJhLbjzGsGCFa3Y-6" value="Visualizar mapa interativo" style="ellipse;whiteSpace=wrap;html=1;direction=west;" vertex="1" parent="1">
          <mxGeometry x="160" y="540" width="120" height="50" as="geometry" />
        </mxCell>
        <mxCell id="MH7_JUJhLbjzGsGCFa3Y-7" value="Buscar Universidade" style="ellipse;whiteSpace=wrap;html=1;direction=west;" vertex="1" parent="1">
          <mxGeometry x="354" y="360" width="120" height="50" as="geometry" />
        </mxCell>
        <mxCell id="MH7_JUJhLbjzGsGCFa3Y-15" style="rounded=0;orthogonalLoop=1;jettySize=auto;html=1;entryX=1;entryY=0.5;entryDx=0;entryDy=0;dashed=1;" edge="1" parent="1" source="MH7_JUJhLbjzGsGCFa3Y-3" target="MH7_JUJhLbjzGsGCFa3Y-5">
          <mxGeometry relative="1" as="geometry" />
        </mxCell>
        <mxCell id="MH7_JUJhLbjzGsGCFa3Y-16" value="&amp;lt;&amp;lt;include&amp;gt;&amp;gt;" style="edgeLabel;html=1;align=center;verticalAlign=middle;resizable=0;points=[];" vertex="1" connectable="0" parent="MH7_JUJhLbjzGsGCFa3Y-15">
          <mxGeometry x="-0.0191" y="-3" relative="1" as="geometry">
            <mxPoint y="-1" as="offset" />
          </mxGeometry>
        </mxCell>
        <mxCell id="MH7_JUJhLbjzGsGCFa3Y-23" style="rounded=0;orthogonalLoop=1;jettySize=auto;html=1;dashed=1;endArrow=classic;endFill=1;" edge="1" parent="1" source="MH7_JUJhLbjzGsGCFa3Y-19" target="MH7_JUJhLbjzGsGCFa3Y-4">
          <mxGeometry relative="1" as="geometry" />
        </mxCell>
        <mxCell id="MH7_JUJhLbjzGsGCFa3Y-24" value="&amp;lt;&amp;lt;extend&amp;gt;&amp;gt;" style="edgeLabel;html=1;align=center;verticalAlign=middle;resizable=0;points=[];" vertex="1" connectable="0" parent="MH7_JUJhLbjzGsGCFa3Y-23">
          <mxGeometry x="-0.0748" y="1" relative="1" as="geometry">
            <mxPoint as="offset" />
          </mxGeometry>
        </mxCell>
        <mxCell id="MH7_JUJhLbjzGsGCFa3Y-19" value="Realizar Login" style="ellipse;whiteSpace=wrap;html=1;direction=west;" vertex="1" parent="1">
          <mxGeometry x="490" y="320" width="120" height="50" as="geometry" />
        </mxCell>
        <mxCell id="MH7_JUJhLbjzGsGCFa3Y-25" value="Filtrar Universidade" style="ellipse;whiteSpace=wrap;html=1;direction=west;" vertex="1" parent="1">
          <mxGeometry x="234" y="460" width="120" height="50" as="geometry" />
        </mxCell>
        <mxCell id="MH7_JUJhLbjzGsGCFa3Y-52" value="" style="rounded=0;orthogonalLoop=1;jettySize=auto;html=1;dashed=1;" edge="1" parent="1" source="MH7_JUJhLbjzGsGCFa3Y-30" target="MH7_JUJhLbjzGsGCFa3Y-6">
          <mxGeometry relative="1" as="geometry" />
        </mxCell>
        <mxCell id="MH7_JUJhLbjzGsGCFa3Y-30" value="Favoritar Faculdade" style="ellipse;whiteSpace=wrap;html=1;direction=west;" vertex="1" parent="1">
          <mxGeometry x="370" y="535" width="120" height="50" as="geometry" />
        </mxCell>
        <mxCell id="MH7_JUJhLbjzGsGCFa3Y-34" style="rounded=0;orthogonalLoop=1;jettySize=auto;html=1;entryX=0;entryY=0.5;entryDx=0;entryDy=0;" edge="1" parent="1" source="MH7_JUJhLbjzGsGCFa3Y-32" target="MH7_JUJhLbjzGsGCFa3Y-33">
          <mxGeometry relative="1" as="geometry" />
        </mxCell>
        <mxCell id="MH7_JUJhLbjzGsGCFa3Y-32" value="administrador" style="shape=umlActor;verticalLabelPosition=bottom;verticalAlign=top;html=1;outlineConnect=0;" vertex="1" parent="1">
          <mxGeometry x="60" y="600" width="30" height="60" as="geometry" />
        </mxCell>
        <mxCell id="MH7_JUJhLbjzGsGCFa3Y-33" value="Manter Faculdade" style="ellipse;whiteSpace=wrap;html=1;direction=west;" vertex="1" parent="1">
          <mxGeometry x="328.5" y="640" width="120" height="50" as="geometry" />
        </mxCell>
        <mxCell id="MH7_JUJhLbjzGsGCFa3Y-38" style="rounded=0;orthogonalLoop=1;jettySize=auto;html=1;endArrow=none;endFill=0;" edge="1" parent="1" source="MH7_JUJhLbjzGsGCFa3Y-36" target="MH7_JUJhLbjzGsGCFa3Y-33">
          <mxGeometry relative="1" as="geometry" />
        </mxCell>
        <mxCell id="MH7_JUJhLbjzGsGCFa3Y-39" value="" style="rounded=0;orthogonalLoop=1;jettySize=auto;html=1;endArrow=none;endFill=0;" edge="1" parent="1" source="MH7_JUJhLbjzGsGCFa3Y-36" target="MH7_JUJhLbjzGsGCFa3Y-19">
          <mxGeometry relative="1" as="geometry" />
        </mxCell>
        <mxCell id="MH7_JUJhLbjzGsGCFa3Y-41" style="rounded=0;orthogonalLoop=1;jettySize=auto;html=1;endArrow=none;endFill=0;" edge="1" parent="1" source="MH7_JUJhLbjzGsGCFa3Y-36" target="MH7_JUJhLbjzGsGCFa3Y-7">
          <mxGeometry relative="1" as="geometry" />
        </mxCell>
        <mxCell id="MH7_JUJhLbjzGsGCFa3Y-42" style="rounded=0;orthogonalLoop=1;jettySize=auto;html=1;endArrow=none;endFill=0;" edge="1" parent="1" source="MH7_JUJhLbjzGsGCFa3Y-36" target="MH7_JUJhLbjzGsGCFa3Y-5">
          <mxGeometry relative="1" as="geometry" />
        </mxCell>
        <mxCell id="MH7_JUJhLbjzGsGCFa3Y-36" value="Sistema" style="shape=umlActor;verticalLabelPosition=bottom;verticalAlign=top;html=1;outlineConnect=0;" vertex="1" parent="1">
          <mxGeometry x="720" y="365" width="30" height="60" as="geometry" />
        </mxCell>
        <mxCell id="MH7_JUJhLbjzGsGCFa3Y-45" style="rounded=0;orthogonalLoop=1;jettySize=auto;html=1;dashed=1;endArrow=classic;endFill=1;exitX=0.575;exitY=1.06;exitDx=0;exitDy=0;exitPerimeter=0;" edge="1" parent="1" source="MH7_JUJhLbjzGsGCFa3Y-25" target="MH7_JUJhLbjzGsGCFa3Y-7">
          <mxGeometry relative="1" as="geometry">
            <mxPoint x="509.89" y="439.55" as="sourcePoint" />
            <mxPoint x="408.89" y="415.55" as="targetPoint" />
          </mxGeometry>
        </mxCell>
        <mxCell id="MH7_JUJhLbjzGsGCFa3Y-46" value="&amp;lt;&amp;lt;extend&amp;gt;&amp;gt;" style="edgeLabel;html=1;align=center;verticalAlign=middle;resizable=0;points=[];" vertex="1" connectable="0" parent="MH7_JUJhLbjzGsGCFa3Y-45">
          <mxGeometry x="-0.0748" y="1" relative="1" as="geometry">
            <mxPoint as="offset" />
          </mxGeometry>
        </mxCell>
        <mxCell id="MH7_JUJhLbjzGsGCFa3Y-54" value="&amp;lt;&amp;lt;extend&amp;gt;&amp;gt;" style="edgeLabel;html=1;align=center;verticalAlign=middle;resizable=0;points=[];" vertex="1" connectable="0" parent="MH7_JUJhLbjzGsGCFa3Y-45">
          <mxGeometry x="-0.0748" y="1" relative="1" as="geometry">
            <mxPoint x="-22" y="133" as="offset" />
          </mxGeometry>
        </mxCell>
        <mxCell id="MH7_JUJhLbjzGsGCFa3Y-57" value="&amp;lt;&amp;lt;extend&amp;gt;&amp;gt;" style="edgeLabel;html=1;align=center;verticalAlign=middle;resizable=0;points=[];" vertex="1" connectable="0" parent="MH7_JUJhLbjzGsGCFa3Y-45">
          <mxGeometry x="-0.0748" y="1" relative="1" as="geometry">
            <mxPoint x="53" y="88" as="offset" />
          </mxGeometry>
        </mxCell>
        <mxCell id="MH7_JUJhLbjzGsGCFa3Y-55" style="rounded=0;orthogonalLoop=1;jettySize=auto;html=1;entryX=0.5;entryY=0.5;entryDx=0;entryDy=0;entryPerimeter=0;endArrow=none;endFill=0;" edge="1" parent="1" source="MH7_JUJhLbjzGsGCFa3Y-30" target="MH7_JUJhLbjzGsGCFa3Y-36">
          <mxGeometry relative="1" as="geometry" />
        </mxCell>
        <mxCell id="MH7_JUJhLbjzGsGCFa3Y-56" style="rounded=0;orthogonalLoop=1;jettySize=auto;html=1;entryX=0.025;entryY=0.28;entryDx=0;entryDy=0;entryPerimeter=0;dashed=1;" edge="1" parent="1" source="MH7_JUJhLbjzGsGCFa3Y-30" target="MH7_JUJhLbjzGsGCFa3Y-25">
          <mxGeometry relative="1" as="geometry" />
        </mxCell>
        <mxCell id="MH7_JUJhLbjzGsGCFa3Y-61" value="Sistema sua Facul" style="text;html=1;align=center;verticalAlign=middle;resizable=0;points=[];autosize=1;strokeColor=none;fillColor=none;" vertex="1" parent="1">
          <mxGeometry x="328.5" y="150" width="120" height="30" as="geometry" />
        </mxCell>
      </root>
    </mxGraphModel>
  </diagram>
</mxfile>
